<svg width="512" height="512" viewBox="0 0 512 512"
     xmlns="http://www.w3.org/2000/svg">

  <!-- Rounded background -->
  <rect x="16" y="16" width="480" height="480" rx="96"
        fill="#0F172A"/>

  <!-- P main body -->
  <path
    d="M256 120
       C198 120 160 160 160 214
       V352
       C160 372 176 388 196 388
       C216 388 232 372 232 352
       V214
       C232 190 250 172 276 172
       C302 172 320 190 320 214
       C320 238 302 256 276 256
       H236
       V304
       H276
       C330 304 368 266 368 214
       C368 160 330 120 256 120Z"
    fill="url(#blueGrad)"
  />

  <!-- Yellow tail -->
  <path
    d="M210 368 L260 348 L260 382 L210 402 Z"
    fill="url(#yellowGrad)"
  />

  <!-- Gradients -->
  <defs>
    <linearGradient id="blueGrad" x1="160" y1="120" x2="368" y2="388">
      <stop offset="0%" stop-color="#38BDF8"/>
      <stop offset="100%" stop-color="#1D4ED8"/>
    </linearGradient>

    <linearGradient id="yellowGrad" x1="210" y1="348" x2="260" y2="402">
      <stop offset="0%" stop-color="#FACC15"/>
      <stop offset="100%" stop-color="#F59E0B"/>
    </linearGradient>
  </defs>

</svg>
