<svg xmlns="http://www.w3.org/2000/svg" viewBox="0 0 512 512" width="512" height="512">
  <defs>
    <linearGradient id="g1" x1="0" x2="1" y1="0" y2="1">
      <stop offset="0" stop-color="#20E3A0"/>
      <stop offset="1" stop-color="#00C2FF"/>
    </linearGradient>
    <linearGradient id="g2" x1="0" x2="1" y1="0" y2="1">
      <stop offset="0" stop-color="#6A5CFF"/>
      <stop offset="1" stop-color="#B04CFF"/>
    </linearGradient>
    <!-- soft inner glow using subtle blur -->
    <filter id="glow" x="-50%" y="-50%" width="200%" height="200%">
      <feGaussianBlur stdDeviation="10" result="coloredBlur"/>
      <feMerge>
        <feMergeNode in="coloredBlur"/>
        <feMergeNode in="SourceGraphic"/>
      </feMerge>
    </filter>
  </defs>

  <!-- Left/top bubble (teal→turquoise) -->
  <g filter="url(#glow)">
    <path d="M120 96 h224 a40 40 0 0 1 40 40 v104 a40 40 0 0 1 -40 40 h-112 l-48 40 v-40 h-64 a40 40 0 0 1 -40 -40 v-104 a40 40 0 0 1 40 -40 z"
          fill="url(#g1)" fill-rule="evenodd" opacity="0.98"/>
    <!-- outline (subtle) -->
    <path d="M120 96 h224 a40 40 0 0 1 40 40 v104 a40 40 0 0 1 -40 40 h-112 l-48 40 v-40 h-64 a40 40 0 0 1 -40 -40 v-104 a40 40 0 0 1 40 -40 z"
          fill="none" stroke="rgba(0,0,0,0.06)" stroke-width="6" stroke-linejoin="round"/>
  </g>

  <!-- Right/bottom bubble (purple→violet), slightly offset to overlap -->
  <g filter="url(#glow)">
    <path d="M192 192 h224 a36 36 0 0 1 36 36 v92 a36 36 0 0 1 -36 36 h-96 l-40 34 v-34 h-68 a36 36 0 0 1 -36 -36 v-92 a36 36 0 0 1 36 -36 z"
          fill="url(#g2)" fill-rule="evenodd" opacity="0.98" transform="translate(-24,32)"/>
    <path d="M192 192 h224 a36 36 0 0 1 36 36 v92 a36 36 0 0 1 -36 36 h-96 l-40 34 v-34 h-68 a36 36 0 0 1 -36 -36 v-92 a36 36 0 0 1 36 -36 z"
          fill="none" stroke="rgba(0,0,0,0.06)" stroke-width="5" stroke-linejoin="round" transform="translate(-24,32)"/>
  </g>

  <!-- ensure compact bounding and crisp edges -->
  <rect x="0" y="0" width="512" height="512" fill="none"/>
</svg>
